<?xml version="1.0" encoding="utf-8"?>
<!-- Generator: Adobe Illustrator 28.0.0, SVG Export Plug-In . SVG Version: 6.00 Build 0)  -->
<svg version="1.1" id="Layer_1" xmlns="http://www.w3.org/2000/svg" xmlns:xlink="http://www.w3.org/1999/xlink" x="0px" y="0px"
	 viewBox="0 0 966.8 853.5" style="enable-background:new 0 0 966.8 853.5;" xml:space="preserve">
<style type="text/css">
	.st0{fill:#0089D6;}
</style>
<g>
	<path class="st0" d="M443.1,800c120.4-24.5,219.9-44.8,221-45l2.1-0.5L552.5,598.8c-62.5-85.6-113.7-156-113.7-156.4
		S556.2,69.4,556.9,68.1c0.2-0.4,80.1,158.3,193.7,384.9l194.8,388.6l1.5,3H585.5H224.2L443.1,800z"/>
	<path class="st0" d="M9.5,752.5c0-0.2,53.6-107.3,119-237.9l119-237.5l138.9-134C462.7,69.4,525.4,9,525.6,8.9
		c-0.5,2.2-1.2,4.4-2.2,6.5L372.6,387.3L224.5,752.6H116.9C57.9,753,9.5,752.8,9.5,752.5z"/>
</g>
</svg>
