<?xml version="1.0" encoding="utf-8"?>
<!-- Generator: Adobe Illustrator 28.0.0, SVG Export Plug-In . SVG Version: 6.00 Build 0)  -->
<svg version="1.1" id="Layer_1" xmlns="http://www.w3.org/2000/svg" xmlns:xlink="http://www.w3.org/1999/xlink" x="0px" y="0px"
	 viewBox="0 0 1022.8 800" style="enable-background:new 0 0 1022.8 800;" xml:space="preserve">
<path d="M507.5,778.3c-25.5,0-51-6.3-73.8-18.3c-23.6-12.5-84.5-45.3-140.7-80.3c-32.7-20.4-58.6-38.3-77-53.2
	c-26.7-21.6-38.1-36.9-38.1-51.2V358.6l-0.2-0.1l-14,2.6v412.1H98.3V317.6l-91-47L509.1,17.4l5.5,2.8
	c74.3,37.6,150.2,75.9,225.7,113.9c93.7,47.2,244.5,123.7,246,124.5l24.2,12.3l-170.2,87.8v216.6c0,12.5-6.1,25.1-36.4,49
	c-38.7,30.5-112.7,75.7-220.1,134.6C560.2,771.5,533.9,778.3,507.5,778.3C507.5,778.3,507.5,778.3,507.5,778.3z M243.2,561.6
	c69.4,51.2,143.1,96.8,219.2,135.6l0.1,0.1c13.9,7.3,29.5,11.2,44.9,11.2c16,0,32.1-4.1,46.4-11.9l0.1-0.1
	c75.9-40.1,150.1-85.8,220.7-135.7V392.2L509,529.3L243.2,392.2V561.6z M509,451.8l350-180.5c-11.8-5.9-26.6-13.4-43.5-21.9
	C714,198.2,548,114.6,509,94.8L159.2,271.3l28,14.4l320.9-59.2l11.1,69L288.5,338L509,451.8z"/>
<path d="M734.8,146.4c-75.3-37.9-150.5-75.8-225.7-113.9L37,270.7l80.8,41.7l-6.7,1.1v445.9h39.8v-410l28.7-5.3l11.1,5.7v225.2
	c0,38.9,207.2,150.5,248.7,172.5c43.8,23,95.1,22.6,138.5-1.1c249.6-136.7,249.6-161.9,249.6-171.3V350l153.4-79.1
	C980.7,270.9,829.5,194.2,734.8,146.4z M787.6,568c-73.1,52-149.2,99-227.9,140.6c-32.2,17.6-70.3,17.9-102.7,0.9
	c-79-40.2-154.7-87.3-226.5-140.8V370.5L509,514.1l278.6-143.7V568z M509,466.9L247,331.8l257.4-47.5l-6.8-42l-312.4,57.7
	l-55.8-28.8L509,79.7c32.8,16.7,339.2,171,379.7,191.4L509,466.9z"/>
</svg>
