<?xml version="1.0" encoding="utf-8"?>
<!-- Generator: Adobe Illustrator 28.0.0, SVG Export Plug-In . SVG Version: 6.00 Build 0)  -->
<svg version="1.1" id="Layer_1" xmlns="http://www.w3.org/2000/svg" xmlns:xlink="http://www.w3.org/1999/xlink" x="0px" y="0px"
	 viewBox="0 0 800 800" style="enable-background:new 0 0 800 800;" xml:space="preserve">
<style type="text/css">
	.st0{fill:#FFFFFF;}
</style>
<path class="st0" d="M29.9,277c-17.6,10.9-23.1,34-12.2,51.7c10.9,17.6,34,23.1,51.7,12.2L29.9,277z M169.5,279
	c17.6-10.9,23.1-34,12.2-51.7c-10.9-17.6-34-23.1-51.7-12.2L169.5,279z M187.3,247.1c0-20.7-16.8-37.5-37.5-37.5
	s-37.5,16.8-37.5,37.5H187.3z M299.9,696.8c20.7,0,37.5-16.8,37.5-37.5s-16.8-37.5-37.5-37.5V696.8z M130,215.1
	c-17.6,10.9-23.1,34-12.2,51.7c10.9,17.6,34,23.1,51.7,12.2L130,215.1z M358.1,118.3l-16.3-33.8c-1.2,0.6-2.3,1.2-3.5,1.9
	L358.1,118.3z M441.9,118.3l19.7-31.9c-1.1-0.7-2.3-1.3-3.5-1.9L441.9,118.3z M630.5,279c17.6,10.9,40.8,5.4,51.7-12.2
	c10.9-17.6,5.4-40.8-12.2-51.7L630.5,279z M262.4,659.3c0,20.7,16.8,37.5,37.5,37.5c20.7,0,37.5-16.8,37.5-37.5H262.4z M462.6,659.3
	c0,20.7,16.8,37.5,37.5,37.5s37.5-16.8,37.5-37.5H462.6z M299.9,621.7c-20.7,0-37.5,16.8-37.5,37.5s16.8,37.5,37.5,37.5V621.7z
	 M500.1,696.8c20.7,0,37.5-16.8,37.5-37.5s-16.8-37.5-37.5-37.5V696.8z M500.1,621.7c-20.7,0-37.5,16.8-37.5,37.5
	s16.8,37.5,37.5,37.5V621.7z M687.8,247.1c0-20.7-16.8-37.5-37.5-37.5s-37.5,16.8-37.5,37.5H687.8z M670,215.1
	c-17.6-10.9-40.8-5.4-51.7,12.2c-10.9,17.6-5.4,40.8,12.2,51.7L670,215.1z M730.6,340.9c17.6,10.9,40.8,5.4,51.7-12.2
	c10.9-17.6,5.4-40.8-12.2-51.7L730.6,340.9z M69.4,340.9L169.5,279L130,215.1L29.9,277L69.4,340.9z M112.2,247.1v337.1h75.1V247.1
	H112.2z M112.2,584.2c0,30.9,7.8,62.5,34.2,84.9c24.8,21.1,58.9,27.7,96,27.7v-75.1c-30.5,0-42.7-5.9-47.3-9.8
	c-3.1-2.6-7.7-8.6-7.7-27.7H112.2z M242.3,696.8h57.6v-75.1h-57.6V696.8z M169.5,279l208.3-128.8l-39.5-63.9L130,215.1L169.5,279z
	 M374.3,152.1c16.2-7.8,35.1-7.8,51.4,0l32.5-67.7c-36.8-17.7-79.6-17.7-116.4,0L374.3,152.1z M422.2,150.2L630.5,279l39.5-63.9
	L461.7,86.4L422.2,150.2z M337.4,659.3v-50h-75.1v50H337.4z M337.4,609.2c0-34.6,28-62.6,62.6-62.6v-75.1
	c-76,0-137.6,61.6-137.6,137.6H337.4z M400,546.7c34.6,0,62.6,28,62.6,62.6h75.1c0-76-61.6-137.6-137.6-137.6V546.7z M462.6,609.2
	v50h75.1v-50H462.6z M299.9,696.8h200.2v-75.1H299.9V696.8z M500.1,696.8h57.6v-75.1h-57.6V696.8z M557.7,696.8
	c37,0,71.1-6.6,96-27.7c26.3-22.4,34.2-54,34.2-84.9h-75.1c0,19.1-4.7,25.1-7.7,27.7c-4.6,3.9-16.8,9.8-47.3,9.8V696.8z
	 M687.8,584.2V247.1h-75.1v337.1H687.8z M630.5,279l100.1,61.9l39.5-63.9L670,215.1L630.5,279z"/>
</svg>
