<?xml version="1.0" encoding="utf-8"?>
<!-- Generator: Adobe Illustrator 28.0.0, SVG Export Plug-In . SVG Version: 6.00 Build 0)  -->
<svg version="1.1" id="Layer_1" xmlns="http://www.w3.org/2000/svg" xmlns:xlink="http://www.w3.org/1999/xlink" x="0px" y="0px"
	 viewBox="0 0 398.6 385" style="enable-background:new 0 0 398.6 385;" xml:space="preserve">
<style type="text/css">
	.st0{fill:#D5DBE2;}
	.st1{fill:#FFFFFF;}
	.st2{fill:#222326;}
	.st3{fill:none;stroke:#222326;stroke-width:33.3389;stroke-miterlimit:10;}
	.st4{fill:none;stroke:#222326;stroke-width:23;stroke-miterlimit:10;}
	.st5{fill:#30333A;}
	.st6{fill:#333944;}
</style>
<g>
	<path class="st2" d="M216,314.3c-21,0-45.9-8.8-65.9-17l10.5-25.7c22.1,9.1,39.8,14.1,52.4,14.8c7.5,0.5,12.9-0.7,14.9-3.1
		c0.9-1.1,7.8-11.6-12.5-52.9c-11.8-24.1-26.6-45.3-26.7-45.5l22.8-15.9c0.6,0.9,16,23,28.8,48.9c19.4,39.3,22.5,66.4,9.4,82.7
		C241.6,310.6,229.6,314.3,216,314.3z"/>
	<path class="st2" d="M320.5,330.6c-14.2,16.6-36.2,24.4-66.5,23.4c-7-0.2-14.5-0.9-22.4-2.1c-0.5-0.1-0.9-0.1-1.4-0.2
		c-34.3-5.3-76.8-19.5-127.9-42.4l3.9-8.6c1.5,0.6,3,1.1,4.5,1.6c38.3,13.6,70.2,21.2,95.1,22.7c9.8,0.6,18.4,0.2,25.9-1.1
		c5,0.9,9.8,1.5,14.4,1.9c13.4,1.2,24.6,0.6,33.7-1.8c1.3-0.4,2.6-0.7,3.8-1.2c6.6-2.3,11.9-5.7,15.8-10.3
		c19-22.1,10.7-75.7-23.3-150.9C248.7,100.8,213.9,47,213.5,46.5l23.3-15.1c1.5,2.3,36.2,55.8,64.5,118.5
		c16.8,37.3,27.9,70,32.8,97.3C340.7,284.2,336.2,312.2,320.5,330.6z"/>
	<path class="st2" d="M284.1,322c-0.2,0.3-0.3,0.5-0.5,0.8c-1,1.6-2.1,3.1-3.3,4.5c-10.3,12.8-25.2,20.9-44.8,24
		c-1.3,0.2-2.5,0.4-3.8,0.5c-5.3,0.7-11,1-17,1c-37.7,0-88.5-13.2-153.1-39.7l10.5-25.7c11.8,4.9,23.2,9.2,34.1,13.2
		c1.5,0.6,3,1.1,4.5,1.6c38.3,13.6,70.2,21.2,95.1,22.7c9.8,0.6,18.4,0.2,25.9-1.1c1-0.2,2-0.4,2.9-0.6c10.8-2.3,18.8-6.8,24.1-13.3
		c18.2-22.8,8.2-76.1-28.2-150.1C201,100,164.4,47.4,164,46.9L186.8,31c1.5,2.2,38,54.6,68.4,116.3c18.1,36.7,30.2,69.1,36,96.2
		C298.3,276.9,296,303.3,284.1,322z"/>
</g>
</svg>
