<?xml version="1.0" encoding="utf-8"?>
<!-- Generator: Adobe Illustrator 28.0.0, SVG Export Plug-In . SVG Version: 6.00 Build 0)  -->
<svg version="1.1" id="Layer_1" xmlns="http://www.w3.org/2000/svg" xmlns:xlink="http://www.w3.org/1999/xlink" x="0px" y="0px"
	 viewBox="0 0 1080 385" style="enable-background:new 0 0 1080 385;" xml:space="preserve">
<style type="text/css">
	.st0{fill:#D5DBE2;}
	.st1{fill:#FFFFFF;}
	.st2{fill:#222326;}
	.st3{fill:none;stroke:#222326;stroke-width:33.3389;stroke-miterlimit:10;}
	.st4{fill:none;stroke:#222326;stroke-width:23;stroke-miterlimit:10;}
	.st5{fill:#30333A;}
	.st6{fill:#333944;}
</style>
<g>
	<g>
		<g>
			<path class="st2" d="M401.8,234.5c0,7.8-1,14.2-3,19.1c-2,4.9-5.1,9-9.3,12.2c-4.2,3.2-10.1,6.3-17.6,9.2l-3.1-8.4
				c5.9-2.6,10.4-5.2,13.4-8c3.1-2.7,5.2-6,6.3-9.8c1.2-3.8,1.7-8.7,1.7-14.9V120.8h11.5V234.5z"/>
			<path class="st2" d="M508.1,163.5c7.5,9.1,11.2,21.9,11.2,38.2c0,16.2-3.8,29-11.4,38.4c-7.6,9.4-18,14.1-31.1,14.1
				c-13.3,0-23.7-4.6-31.1-13.9c-7.5-9.3-11.2-22-11.2-38.2c0-10.6,1.7-19.9,5.2-27.8c3.5-7.9,8.4-14,14.8-18.2
				c6.4-4.2,13.9-6.3,22.6-6.3C490.2,149.8,500.6,154.3,508.1,163.5z M454.3,170.1c-5.4,7.3-8.1,18-8.1,32c0,13.9,2.7,24.5,8,31.8
				c5.3,7.3,12.8,10.9,22.5,10.9c9.7,0,17.3-3.6,22.7-10.9c5.4-7.3,8.1-18,8.1-32.2c0-13.9-2.7-24.5-8-31.7
				c-5.3-7.2-12.9-10.8-22.7-10.8C467.2,159.2,459.7,162.8,454.3,170.1z"/>
			<path class="st2" d="M616.8,157.9c4.9,5.4,7.3,12.9,7.3,22.5v71.7H613V182c0-15.5-6.3-23.2-19-23.2c-6.4,0-12,1.8-17,5.3
				c-4.9,3.5-9.6,8.7-14.1,15.4v72.7h-11.1V111l11.1-1.3v58.8c8.9-12.5,20-18.8,33.2-18.8C605.1,149.8,612,152.5,616.8,157.9z"/>
			<path class="st2" d="M728.9,157.8c4.8,5.4,7.2,12.9,7.2,22.6v71.7H725V182c0-8.1-1.6-13.9-4.8-17.6c-3.2-3.7-7.9-5.6-14.2-5.6
				c-6.4,0-12,1.8-17,5.3c-4.9,3.5-9.6,8.7-14.1,15.4v72.7h-11.1V151.9h9.6l1.1,17.1c4.1-6,8.9-10.7,14.6-14.1
				c5.6-3.4,11.9-5.1,19-5.1C717.2,149.8,724.1,152.4,728.9,157.8z"/>
			<path class="st2" d="M817.4,152.5c5.1,1.9,10.1,4.6,15,8.3l-5.2,7.3c-4.6-3.2-8.9-5.5-13-7c-4.1-1.5-8.6-2.2-13.4-2.2
				c-6.6,0-12,1.5-16.1,4.6c-4.1,3.1-6.1,7.2-6.1,12.3c0,4.9,1.8,8.6,5.3,11.3c3.5,2.7,9.9,5.2,19.1,7.7
				c11.4,2.9,19.6,6.6,24.6,11.1c5,4.5,7.6,10.9,7.6,19.2c0,8.9-3.5,16-10.4,21.3c-6.9,5.2-15.5,7.9-25.9,7.9
				c-7.7,0-14.4-1.1-20.1-3.4c-5.7-2.2-11-5.4-15.7-9.5l6.1-7.1c4.5,3.6,9,6.2,13.7,8c4.7,1.7,9.9,2.6,15.8,2.6
				c7.4,0,13.4-1.7,17.9-5.1c4.5-3.4,6.8-8.1,6.8-14.1c0-4.1-0.8-7.4-2.3-10c-1.5-2.6-4.2-4.8-7.9-6.6c-3.7-1.9-9.1-3.7-16.3-5.7
				c-10.6-2.8-18.2-6.3-22.9-10.5c-4.7-4.2-7-9.8-7-16.9c0-5,1.5-9.5,4.4-13.5c2.9-4,6.9-7.2,12-9.4c5-2.2,10.7-3.4,17-3.4
				C806.6,149.8,812.2,150.7,817.4,152.5z"/>
			<path class="st2" d="M930.4,163.5c7.5,9.1,11.2,21.9,11.2,38.2c0,16.2-3.8,29-11.4,38.4c-7.6,9.4-18,14.1-31.2,14.1
				c-13.3,0-23.7-4.6-31.1-13.9c-7.5-9.3-11.2-22-11.2-38.2c0-10.6,1.7-19.9,5.2-27.8c3.5-7.9,8.4-14,14.8-18.2
				c6.4-4.2,13.9-6.3,22.6-6.3C912.5,149.8,922.9,154.3,930.4,163.5z M876.6,170.1c-5.4,7.3-8.1,18-8.1,32c0,13.9,2.7,24.5,8,31.8
				c5.3,7.3,12.8,10.9,22.5,10.9c9.7,0,17.3-3.6,22.7-10.9c5.4-7.3,8.1-18,8.1-32.2c0-13.9-2.7-24.5-8-31.7
				c-5.3-7.2-12.9-10.8-22.7-10.8C889.5,159.2,882,162.8,876.6,170.1z"/>
			<path class="st2" d="M1039.2,157.8c4.8,5.4,7.2,12.9,7.2,22.6v71.7h-11.1V182c0-8.1-1.6-13.9-4.8-17.6c-3.2-3.7-7.9-5.6-14.2-5.6
				c-6.4,0-12,1.8-17,5.3c-4.9,3.5-9.6,8.7-14.1,15.4v72.7h-11.1V151.9h9.6l1.1,17.1c4.1-6,8.9-10.7,14.6-14.1
				c5.6-3.4,11.9-5.1,19-5.1C1027.5,149.8,1034.4,152.4,1039.2,157.8z"/>
		</g>
		<g>
			<path class="st2" d="M197.4,315.7c-21,0-45.9-8.8-65.9-17l10.5-25.7c22.1,9.1,39.8,14.1,52.4,14.8c7.5,0.5,12.9-0.7,14.9-3.1
				c0.9-1.1,7.8-11.6-12.5-52.9c-11.8-24.1-26.6-45.3-26.7-45.5l22.8-15.9c0.6,0.9,16,23,28.8,48.9c19.4,39.3,22.5,66.4,9.4,82.7
				C223,312,211.1,315.7,197.4,315.7z"/>
			<path class="st2" d="M301.9,332c-14.2,16.6-36.2,24.4-66.5,23.4c-7-0.2-14.5-0.9-22.4-2.1c-0.5-0.1-0.9-0.1-1.4-0.2
				c-34.3-5.3-76.8-19.5-127.9-42.4l3.9-8.6c1.5,0.6,3,1.1,4.5,1.6c38.3,13.6,70.2,21.2,95.1,22.7c9.8,0.6,18.4,0.2,25.9-1.1
				c5,0.9,9.8,1.5,14.4,1.9c13.4,1.2,24.6,0.6,33.7-1.8c1.3-0.4,2.6-0.7,3.8-1.2c6.6-2.3,11.9-5.7,15.8-10.3
				c19-22.1,10.7-75.7-23.3-150.9C230.1,102.2,195.3,48.5,195,47.9l23.3-15.1c1.5,2.3,36.2,55.8,64.5,118.5
				c16.8,37.3,27.9,70,32.8,97.3C322.2,285.6,317.6,313.7,301.9,332z"/>
			<path class="st2" d="M265.6,323.4c-0.2,0.3-0.3,0.5-0.5,0.8c-1,1.6-2.1,3.1-3.3,4.5c-10.3,12.8-25.2,20.9-44.8,24
				c-1.3,0.2-2.5,0.4-3.8,0.5c-5.3,0.7-11,1-17,1c-37.7,0-88.5-13.2-153.1-39.7l10.5-25.7c11.8,4.9,23.2,9.2,34.1,13.2
				c1.5,0.6,3,1.1,4.5,1.6c38.3,13.6,70.2,21.2,95.1,22.7c9.8,0.6,18.4,0.2,25.9-1.1c1-0.2,2-0.4,2.9-0.6
				c10.8-2.3,18.8-6.8,24.1-13.3c18.2-22.8,8.2-76.1-28.2-150.1c-29.4-59.8-66-112.4-66.4-112.9l22.8-15.9
				c1.5,2.2,38,54.6,68.4,116.3c18.1,36.7,30.2,69.1,36,96.2C279.8,278.4,277.4,304.7,265.6,323.4z"/>
		</g>
	</g>
</g>
</svg>
