<?xml version="1.0" encoding="utf-8"?>
<!-- Generator: Adobe Illustrator 28.0.0, SVG Export Plug-In . SVG Version: 6.00 Build 0)  -->
<svg version="1.1" id="Layer_1" xmlns="http://www.w3.org/2000/svg" xmlns:xlink="http://www.w3.org/1999/xlink" x="0px" y="0px"
	 viewBox="0 0 800 800" style="enable-background:new 0 0 800 800;" xml:space="preserve">
<style type="text/css">
	.st0{fill-rule:evenodd;clip-rule:evenodd;fill:#101922;}
</style>
<g id="Page-1">
	<g id="Dribbble-Light-Preview" transform="translate(-180.000000, -7479.000000)">
		<g id="icons" transform="translate(56.000000, 160.000000)">
			<path id="linkedin-_x5B__x23_161_x5D_" class="st0" d="M861.3,8015.3H726.4v-236.1c0-64.8-28.6-100.9-79.8-100.9
				c-55.8,0-88.9,37.7-88.9,100.9v236.1H422.8v-438.5h134.9v49.3c0,0,42.3-74.3,137.7-74.3c95.4,0,165.9,58.2,165.9,178.7V8015.3
				L861.3,8015.3z M269.1,7506.7c-45.5,0-82.4-37.2-82.4-83c0-45.8,36.9-83,82.4-83c45.5,0,82.3,37.2,82.3,83
				C351.4,7469.5,314.5,7506.7,269.1,7506.7L269.1,7506.7z M186.7,8015.3h168.7v-438.5H186.7V8015.3z"/>
		</g>
	</g>
</g>
</svg>
