<?xml version="1.0" encoding="utf-8"?>
<!-- Generator: Adobe Illustrator 28.0.0, SVG Export Plug-In . SVG Version: 6.00 Build 0)  -->
<svg version="1.1" id="Layer_1" xmlns="http://www.w3.org/2000/svg" xmlns:xlink="http://www.w3.org/1999/xlink" x="0px" y="0px"
	 viewBox="0 0 800 800" style="enable-background:new 0 0 800 800;" xml:space="preserve">
<style type="text/css">
	.st0{fill:none;stroke:#FFFFFF;stroke-width:66.6667;stroke-linecap:round;stroke-linejoin:round;stroke-miterlimit:133.3333;}
</style>
<g id="Communication__x2F__Phone">
	<path id="Vector" class="st0" d="M316.7,141.9c-10.1-25.3-34.6-41.9-61.9-41.9h-91.7c-34.9,0-63.2,28.3-63.2,63.2
		C100,459.6,340.4,700,636.8,700c34.9,0,63.2-28.3,63.2-63.2l0-91.7c0-27.3-16.6-51.8-41.9-61.9l-87.9-35.1
		c-22.7-9.1-48.6-5-67.4,10.7l-22.7,18.9c-26.5,22.1-65.5,20.3-89.8-4.1l-63.9-63.9c-24.4-24.4-26.2-63.3-4.1-89.8l18.9-22.7
		c15.7-18.8,19.8-44.7,10.7-67.4L316.7,141.9z"/>
</g>
</svg>
