<?xml version="1.0" encoding="utf-8"?>
<!-- Generator: Adobe Illustrator 28.0.0, SVG Export Plug-In . SVG Version: 6.00 Build 0)  -->
<svg version="1.1" id="Layer_1" xmlns="http://www.w3.org/2000/svg" xmlns:xlink="http://www.w3.org/1999/xlink" x="0px" y="0px"
	 viewBox="0 0 800 800" style="enable-background:new 0 0 800 800;" xml:space="preserve">
<style type="text/css">
	.st0{fill:#101922;}
</style>
<path class="st0" d="M618.8,438.5c-36.7,0-71.2-15.5-102.5-40.9l7.5-35.8l0.2-1.4c6.9-38,28.2-102,94.7-102
	c49.8,0,90.1,40.4,90.1,90.1C708.8,398.2,668.5,438.6,618.8,438.5L618.8,438.5z M618.8,167.3c-84.6,0-150.4,54.9-177.1,145.4
	C401,251.7,370,178.3,352.1,116.4h-91.1v237.1c-0.1,46.9-38,84.8-84.9,84.9c-46.9-0.1-84.8-38.2-84.9-84.9V116.4H0v237.1
	c0,97.1,79,176.7,176,176.7c97.1,0,176-79.5,176-176.7v-39.7c17.7,36.9,39.5,74.4,65.9,107.4l-55.9,262.4h93.2l40.5-190.4
	c35.4,22.6,76.2,37,122.9,37c100,0,181.2-81.8,181.2-181.6C800,248.5,718.8,167.3,618.8,167.3L618.8,167.3z"/>
</svg>
